<?xml version="1.0" encoding="UTF-8" standalone="no"?>
<!DOCTYPE svg PUBLIC "-//W3C//DTD SVG 1.1//EN" "http://www.w3.org/Graphics/SVG/1.1/DTD/svg11.dtd">
<svg width="100%" height="100%" viewBox="0 0 67 92" version="1.1" xmlns="http://www.w3.org/2000/svg" xmlns:xlink="http://www.w3.org/1999/xlink" xml:space="preserve" xmlns:serif="http://www.serif.com/" style="fill-rule:evenodd;clip-rule:evenodd;stroke-linejoin:round;stroke-miterlimit:2;">
    <g id="Artboard1" transform="matrix(0.663126,0,0,2.87475,0,0)">
        <rect x="0" y="0" width="100" height="32" style="fill:none;"/>
        <clipPath id="_clip1">
            <rect x="0" y="0" width="100" height="32"/>
        </clipPath>
        <g clip-path="url(#_clip1)">
            <g transform="matrix(8.72608,0,0,2.01287,-107.312,-22.3159)">
                <path d="M18.002,13.939L12.298,13.939L12.298,24.132L15.15,26.984L18.002,24.132L23.706,24.132L23.706,13.939L20.854,11.087L18.002,13.939ZM16.53,19.036L15.15,17.655L13.769,19.036L15.15,20.416L16.53,19.036ZM22.053,19.036L20.673,17.655L19.292,19.036L20.673,20.416L22.053,19.036ZM19.292,19.036L17.911,17.655L16.53,19.036L17.911,20.416L19.292,19.036Z" style="fill:rgb(241,162,0);"/>
            </g>
        </g>
    </g>
</svg>
